<svg xmlns="http://www.w3.org/2000/svg" xmlns:se="http://svg-edit.googlecode.com" xmlns:xlink="http://www.w3.org/1999/xlink" xmlns:dc="http://purl.org/dc/elements/1.1/" xmlns:cc="http://creativecommons.org/ns#" xmlns:rdf="http://www.w3.org/1999/02/22-rdf-syntax-ns#" xmlns:inkscape="http://www.inkscape.org/namespaces/inkscape" width="172" height="172" style="">                                    <title>my vector image</title>                                    <!-- Created with Vector Paint - http://www.vectorpaint.yaks.com/ https://chrome.google.com/webstore/detail/hnbpdiengicdefcjecjbnjnoifekhgdo -->                                    <rect id="backgroundrect" width="100%" height="100%" x="0" y="0" fill="#FFFFFF" stroke="none" class="" style=""/>                                <g class="currentLayer" style=""><title>Layer 1</title><g class=""><rect fill="#267ec5" stroke="#267ec5" stroke-width="3" stroke-dashoffset="" fill-rule="nonzero" id="svg_1" x="1.5" y="1.5" width="168.8461456298828" height="168.8461456298828" style="color: rgb(38, 126, 197);" class=""/><path fill="#ffffff" stroke="#267ec5" stroke-width="3" stroke-dashoffset="" fill-rule="nonzero" marker-start="" marker-mid="" marker-end="" id="svg_2" d="M85.57634374706241,22.20181204071491 C40.2605925548177,22.20181204071491 3.5250611951433584,49.75346056046985 3.5250611951433584,83.74027395465424 C3.5250611951433584,95.35053043575054 7.867918364498937,106.20474295618976 15.340445882618528,115.47067707866294 L3.5250611951433584,141.3754391414819 L36.42176469256702,132.93587865042662 C50.13018968463382,140.64869921030504 67.11480517287931,145.27873586859332 85.57634374706241,145.27873586859332 C130.89209493930704,145.27873586859332 167.62762629898134,117.72708734884161 167.62762629898134,83.74027395465424 S130.89209493930704,22.20181204071491 85.57634374706241,22.20181204071491 zM91.33165513749154,118.53587856256621 L79.79172832714953,118.53587856256621 L79.79172832714953,107.46481622395493 L91.33165513749154,107.46481622395493 L91.33165513749154,118.53587856256621 zM91.33165513749154,95.64357073058011 L91.33165513749154,99.30657441593246 L79.79172832714953,99.30657441593246 L79.79172832714953,94.79961468147516 C79.79172832714953,81.1966841955429 95.27011669998325,79.03990762560841 95.27011669998325,69.38129950807084 C95.27011669998325,64.97397347385447 91.33165513749154,61.592288471531845 86.16828514261493,61.592288471531845 C80.82323016494624,61.592288471531845 76.1287246417971,65.53075003402674 76.1287246417971,65.53075003402674 L69.56462203764336,57.36664742011053 C69.56462203764336,57.36664742011053 76.03495174745287,50.60913822136815 87.19978698041146,50.60913822136815 C97.80784565319478,50.60913822136815 107.6539995594241,57.179101631418845 107.6539995594241,68.24430316413341 C107.65986036532081,83.73441314875753 91.33165513749154,85.51609814131464 91.33165513749154,95.64357073058011 z" style="color: rgb(38, 126, 197);" class=""/></g></g></svg>