<svg xmlns="http://www.w3.org/2000/svg" xmlns:se="http://svg-edit.googlecode.com" xmlns:xlink="http://www.w3.org/1999/xlink" xmlns:dc="http://purl.org/dc/elements/1.1/" xmlns:cc="http://creativecommons.org/ns#" xmlns:rdf="http://www.w3.org/1999/02/22-rdf-syntax-ns#" xmlns:inkscape="http://www.inkscape.org/namespaces/inkscape" width="196" height="196" style="">                                    <title>my vector image</title>                                    <!-- Created with Vector Paint - http://www.vectorpaint.yaks.com/ https://chrome.google.com/webstore/detail/hnbpdiengicdefcjecjbnjnoifekhgdo -->                                    <rect id="backgroundrect" width="100%" height="100%" x="0" y="0" fill="#FFFFFF" stroke="none" class="" style=""/>                                <g class="currentLayer" style=""><title>Layer 1</title><rect fill="#267ec5" stroke="#267ec5" stroke-width="3" stroke-dashoffset="" fill-rule="nonzero" id="svg_6" x="1.5" y="1.5" width="193" height="193" style="color: rgb(38, 126, 197);" class=""/><path fill="#ffffff" fill-opacity="1" stroke="#267ec5" stroke-opacity="1" stroke-width="3" stroke-dasharray="none" stroke-linejoin="miter" stroke-linecap="butt" stroke-dashoffset="" fill-rule="nonzero" opacity="1" marker-start="" marker-mid="" marker-end="" id="svg_3" d="M138.64838439190981,112.84945358298938 " style="color: rgb(255, 255, 255);" class=""/><path fill="#ffffff" fill-opacity="1" stroke="#267ec5" stroke-opacity="1" stroke-width="3" stroke-dasharray="none" stroke-linejoin="miter" stroke-linecap="butt" stroke-dashoffset="" fill-rule="nonzero" opacity="1" marker-start="" marker-mid="" marker-end="" id="svg_5" d="M58.42860122968554,29.88241757274369 " style="color: rgb(255, 255, 255);" class=""/><path fill="#ffffff" fill-opacity="1" stroke="#267ec5" stroke-opacity="1" stroke-width="3" stroke-dasharray="none" stroke-linejoin="miter" stroke-linecap="butt" stroke-dashoffset="" fill-rule="nonzero" opacity="1" marker-start="" marker-mid="" marker-end="" id="svg_1" d="M14.472555661343478,21.640659028679522 C14.472555661343478,21.640659028679522 45.81051116597581,21.640659028679522 45.79123812878714,20.541757889470972 C45.79123812878714,20.541757889470972 65.02200806493687,75.4868148498986 65.02200806493687,75.4868148498986 C65.02200806493687,75.4868148498986 85.90112970989941,22.19010959828381 85.90112970989941,22.19010959828381 C85.90112970989941,22.19010959828381 113.971547826208,22.19010959828381 113.69780504834517,21.829673012534336 C113.971547826208,22.19010959828381 71.06596433058388,167.794510543417 71.06596433058388,167.794510543417 C71.06596433058388,167.794510543417 14.472555661343478,21.640659028679522 14.472555661343478,21.640659028679522 z" style="color: rgb(255, 255, 255);" class=""/><path fill="#ffffff" fill-opacity="1" stroke="#267ec5" stroke-opacity="1" stroke-width="3" stroke-dasharray="none" stroke-linejoin="miter" stroke-linecap="butt" stroke-dashoffset="" fill-rule="nonzero" opacity="1" marker-start="" marker-mid="" marker-end="" id="svg_4" d="M93.043987114755,49.11318750889333 C93.043987114755,49.11318750889333 116.67036160773881,49.11318750889333 116.67036160773881,49.11318750889333 C116.67036160773881,49.11318750889333 116.12091103813458,87.57472738119267 116.12091103813458,87.57472738119267 C116.12091103813458,87.57472738119267 144.1428900879526,17.79450504144961 144.1428900879526,17.79450504144961 C144.1428900879526,17.79450504144961 165.57146230251936,16.14615333263677 165.57146230251936,16.14615333263677 C165.57146230251936,16.14615333263677 121.61541673417736,123.83846497507488 121.06596616457307,123.83846497507488 C120.51651559496878,123.83846497507488 155.68135204964238,168.89341168262553 155.68135204964238,168.89341168262553 C155.68135204964238,168.89341168262553 121.06596616457307,167.794510543417 121.06596616457307,167.794510543417 C121.06596616457307,167.794510543417 108.97805363327899,128.23406953190914 108.97805363327899,128.23406953190914 C108.97805363327899,128.23406953190914 92.49453654515065,128.78352010151337 92.49453654515065,128.78352010151337 C92.49453654515065,128.78352010151337 97.98904224119343,165.5967082649999 97.98904224119343,165.5967082649999 C97.98904224119343,165.5967082649999 79.30772287464805,145.81648775924594 79.30772287464805,145.81648775924594 C79.30772287464805,145.81648775924594 93.043987114755,49.11318750889333 93.043987114755,49.11318750889333 z" style="color: rgb(255, 255, 255);" class=""/></g></svg>